<svg xmlns="http://www.w3.org/2000/svg" viewBox="0 0 100 100">
  <defs>
    <linearGradient id="grad" x1="0%" y1="0%" x2="100%" y2="100%">
      <stop offset="0%" style="stop-color:#ef4444;stop-opacity:1" />
      <stop offset="50%" style="stop-color:#dc2626;stop-opacity:1" />
      <stop offset="100%" style="stop-color:#f97316;stop-opacity:1" />
    </linearGradient>
  </defs>
  <rect width="100" height="100" rx="20" fill="url(#grad)"/>
  <path d="M 30 45 L 35 35 L 65 35 L 70 45 L 75 45 L 75 65 L 70 65 L 70 70 L 60 70 L 60 65 L 40 65 L 40 70 L 30 70 L 30 65 L 25 65 L 25 45 Z M 35 50 A 3 3 0 1 1 41 50 A 3 3 0 1 1 35 50 M 59 50 A 3 3 0 1 1 65 50 A 3 3 0 1 1 59 50 M 40 38 L 45 45 L 55 45 L 60 38 Z" fill="white" stroke="white" stroke-width="2"/>
  <circle cx="75" cy="75" r="12" fill="#f97316"/>
  <circle cx="72" cy="73" r="2.5" fill="white"/>
  <circle cx="78" cy="73" r="2.5" fill="white"/>
  <path d="M 72 78 Q 75 80 78 78" stroke="white" stroke-width="2" fill="none" stroke-linecap="round"/>
</svg>
